<svg xmlns="http://www.w3.org/2000/svg" viewBox="0 0 64 64" width="64" height="64" role="img" aria-label="caretline">
  <title>caretline</title>
  <rect width="64" height="64" rx="14" fill="#F5F6F9"/>
  <polygon points="43.08,27.39 59.35,22.12 57.64,18.29 42.84,26.85" fill="#141720"/>
  <polygon points="46.34,36.42 56.55,40.7 57.43,37.63 46.5,35.85" fill="#141720"/>
  <polygon points="20.59,38.24 5.84,44.68 7.94,48.32 20.89,38.76" fill="#141720"/>
  <polygon points="17.66,27.58 8.41,23.57 7.53,26.65 17.5,28.15" fill="#141720"/>
  <polygon points="40.7,45.43 45.69,55.33 48.51,53.43 41.2,45.1" fill="#141720"/>
  <polygon points="23.3,18.57 18.31,8.67 15.49,10.57 22.8,18.9" fill="#141720"/>
  <circle cx="40.92" cy="15.22" r="1.7" fill="#141720" fill-opacity="0.7"/>
  <circle cx="24.13" cy="51.47" r="1.7" fill="#141720" fill-opacity="0.7"/>
  <circle cx="20.73" cy="10.81" r="1.4" fill="#141720" fill-opacity="0.7"/>
  <circle cx="34.72" cy="57.86" r="1.3" fill="#141720" fill-opacity="0.7"/>
  <rect x="29" y="13" width="6" height="38" fill="#5338F0"/>
</svg>
